<?xml version="1.0" encoding="UTF-8" standalone="no"?><svg xmlns="http://www.w3.org/2000/svg" xmlns:xlink="http://www.w3.org/1999/xlink" clip-rule="evenodd" stroke-miterlimit="4.00" viewBox="0 0 1024 768"><desc>SVG generated by Keynote</desc><defs></defs><g transform="matrix(1.00, 0.00, -0.00, -1.00, 0.0, 768.0)"><path d="M 0.0 768.0 L 1024.0 768.0 L 1024.0 0.0 L 0.0 0.0 Z M 0.0 768.0 " fill="#FEFFFF"></path><text xml:space="preserve" font-family="Helvetica-Light" font-size="70.0" fill="#000000" transform="matrix(1.00, 0.00, -0.00, -1.00, 116.0, 606.0)">F</text><text xml:space="preserve" font-family="Helvetica-Light" font-size="70.0" fill="#000000" transform="matrix(1.00, 0.00, -0.00, -1.00, 154.9, 606.0)">i</text><text xml:space="preserve" font-family="Helvetica-Light" font-size="70.0" fill="#000000" transform="matrix(1.00, 0.00, -0.00, -1.00, 170.5, 606.0)">n</text><text xml:space="preserve" font-family="Helvetica-Light" font-size="70.0" fill="#000000" transform="matrix(1.00, 0.00, -0.00, -1.00, 209.4, 606.0)">d</text><text xml:space="preserve" font-family="Helvetica-Light" font-size="70.0" fill="#000000" transform="matrix(1.00, 0.00, -0.00, -1.00, 252.2, 606.0)"> </text><text xml:space="preserve" font-family="Helvetica-Light" font-size="70.0" fill="#000000" transform="matrix(1.00, 0.00, -0.00, -1.00, 271.6, 606.0)">P</text><text xml:space="preserve" font-family="Helvetica-Light" font-size="70.0" fill="#000000" transform="matrix(1.00, 0.00, -0.00, -1.00, 314.4, 606.0)">o</text><text xml:space="preserve" font-family="Helvetica-Light" font-size="70.0" fill="#000000" transform="matrix(1.00, 0.00, -0.00, -1.00, 353.3, 606.0)">t</text><text xml:space="preserve" font-family="Helvetica-Light" font-size="70.0" fill="#000000" transform="matrix(1.00, 0.00, -0.00, -1.00, 372.8, 606.0)">e</text><text xml:space="preserve" font-family="Helvetica-Light" font-size="70.0" fill="#000000" transform="matrix(1.00, 0.00, -0.00, -1.00, 411.7, 606.0)">n</text><text xml:space="preserve" font-family="Helvetica-Light" font-size="70.0" fill="#000000" transform="matrix(1.00, 0.00, -0.00, -1.00, 450.6, 606.0)">t</text><text xml:space="preserve" font-family="Helvetica-Light" font-size="70.0" fill="#000000" transform="matrix(1.00, 0.00, -0.00, -1.00, 470.1, 606.0)">i</text><text xml:space="preserve" font-family="Helvetica-Light" font-size="70.0" fill="#000000" transform="matrix(1.00, 0.00, -0.00, -1.00, 485.6, 606.0)">a</text><text xml:space="preserve" font-family="Helvetica-Light" font-size="70.0" fill="#000000" transform="matrix(1.00, 0.00, -0.00, -1.00, 524.5, 606.0)">l</text><text xml:space="preserve" font-family="Helvetica-Light" font-size="70.0" fill="#000000" transform="matrix(1.00, 0.00, -0.00, -1.00, 540.1, 606.0)"> </text><text xml:space="preserve" font-family="Helvetica-Light" font-size="70.0" fill="#000000" transform="matrix(1.00, 0.00, -0.00, -1.00, 559.5, 606.0)">Y</text><text xml:space="preserve" font-family="Helvetica-Light" font-size="70.0" fill="#000000" transform="matrix(1.00, 0.00, -0.00, -1.00, 595.9, 606.0)">e</text><text xml:space="preserve" font-family="Helvetica-Light" font-size="70.0" fill="#000000" transform="matrix(1.00, 0.00, -0.00, -1.00, 634.8, 606.0)">l</text><text xml:space="preserve" font-family="Helvetica-Light" font-size="70.0" fill="#000000" transform="matrix(1.00, 0.00, -0.00, -1.00, 650.3, 606.0)">p</text><text xml:space="preserve" font-family="Helvetica-Light" font-size="70.0" fill="#000000" transform="matrix(1.00, 0.00, -0.00, -1.00, 693.1, 606.0)">’</text><text xml:space="preserve" font-family="Helvetica-Light" font-size="70.0" fill="#000000" transform="matrix(1.00, 0.00, -0.00, -1.00, 703.4, 606.0)">s</text><text xml:space="preserve" font-family="Helvetica-Light" font-size="70.0" fill="#000000" transform="matrix(1.00, 0.00, -0.00, -1.00, 738.4, 606.0)"> </text><text xml:space="preserve" font-family="Helvetica-Light" font-size="70.0" fill="#000000" transform="matrix(1.00, 0.00, -0.00, -1.00, 757.9, 606.0)">E</text><text xml:space="preserve" font-family="Helvetica-Light" font-size="70.0" fill="#000000" transform="matrix(1.00, 0.00, -0.00, -1.00, 800.7, 606.0)">l</text><text xml:space="preserve" font-family="Helvetica-Light" font-size="70.0" fill="#000000" transform="matrix(1.00, 0.00, -0.00, -1.00, 816.2, 606.0)">i</text><text xml:space="preserve" font-family="Helvetica-Light" font-size="70.0" fill="#000000" transform="matrix(1.00, 0.00, -0.00, -1.00, 831.7, 606.0)">t</text><text xml:space="preserve" font-family="Helvetica-Light" font-size="70.0" fill="#000000" transform="matrix(1.00, 0.00, -0.00, -1.00, 851.2, 606.0)">e</text><text xml:space="preserve" font-family="Helvetica-Light" font-size="70.0" fill="#000000" transform="matrix(1.00, 0.00, -0.00, -1.00, 890.1, 606.0)">s</text><image xlink:href="BA1691BE543ABE8BDBA700F33691D922.jpeg" width="278.00" height="231.00" transform="matrix(1.00, 0.00, -0.00, -1.00, 645.0, 433.0)"></image><image xlink:href="0E92F5FAC6A9C7E2C38F8004D9BD9F91.jpeg" width="227.00" height="231.00" transform="matrix(1.00, 0.00, -0.00, -1.00, 359.0, 433.0)"></image><text xml:space="preserve" font-family="Helvetica-Light" font-size="33.0" fill="#000000" transform="matrix(1.00, 0.00, -0.00, -1.00, 670.0, 133.0)">J</text><text xml:space="preserve" font-family="Helvetica-Light" font-size="33.0" fill="#000000" transform="matrix(1.00, 0.00, -0.00, -1.00, 686.5, 133.0)">i</text><text xml:space="preserve" font-family="Helvetica-Light" font-size="33.0" fill="#000000" transform="matrix(1.00, 0.00, -0.00, -1.00, 693.8, 133.0)">n</text><text xml:space="preserve" font-family="Helvetica-Light" font-size="33.0" fill="#000000" transform="matrix(1.00, 0.00, -0.00, -1.00, 712.2, 133.0)">g</text><text xml:space="preserve" font-family="Helvetica-Light" font-size="33.0" fill="#000000" transform="matrix(1.00, 0.00, -0.00, -1.00, 732.3, 133.0)">x</text><text xml:space="preserve" font-family="Helvetica-Light" font-size="33.0" fill="#000000" transform="matrix(1.00, 0.00, -0.00, -1.00, 748.8, 133.0)">u</text><text xml:space="preserve" font-family="Helvetica-Light" font-size="33.0" fill="#000000" transform="matrix(1.00, 0.00, -0.00, -1.00, 767.2, 133.0)"> </text><text xml:space="preserve" font-family="Helvetica-Light" font-size="33.0" fill="#000000" transform="matrix(1.00, 0.00, -0.00, -1.00, 776.4, 133.0)">W</text><text xml:space="preserve" font-family="Helvetica-Light" font-size="33.0" fill="#000000" transform="matrix(1.00, 0.00, -0.00, -1.00, 804.5, 133.0)">a</text><text xml:space="preserve" font-family="Helvetica-Light" font-size="33.0" fill="#000000" transform="matrix(1.00, 0.00, -0.00, -1.00, 822.8, 133.0)">n</text><text xml:space="preserve" font-family="Helvetica-Light" font-size="33.0" fill="#000000" transform="matrix(1.00, 0.00, -0.00, -1.00, 841.2, 133.0)">g</text><text xml:space="preserve" font-family="Helvetica-Light" font-size="33.0" fill="#000000" transform="matrix(1.00, 0.00, -0.00, -1.00, 861.3, 133.0)"> </text><text xml:space="preserve" font-family="Helvetica-Light" font-size="33.0" fill="#000000" transform="matrix(1.00, 0.00, -0.00, -1.00, 403.0, 131.0)">Z</text><text xml:space="preserve" font-family="Helvetica-Light" font-size="33.0" fill="#000000" transform="matrix(1.00, 0.00, -0.00, -1.00, 423.2, 131.0)">h</text><text xml:space="preserve" font-family="Helvetica-Light" font-size="33.0" fill="#000000" transform="matrix(1.00, 0.00, -0.00, -1.00, 441.5, 131.0)">e</text><text xml:space="preserve" font-family="Helvetica-Light" font-size="33.0" fill="#000000" transform="matrix(1.00, 0.00, -0.00, -1.00, 459.9, 131.0)"> </text><text xml:space="preserve" font-family="Helvetica-Light" font-size="33.0" fill="#000000" transform="matrix(1.00, 0.00, -0.00, -1.00, 469.0, 131.0)">H</text><text xml:space="preserve" font-family="Helvetica-Light" font-size="33.0" fill="#000000" transform="matrix(1.00, 0.00, -0.00, -1.00, 492.9, 131.0)">a</text><text xml:space="preserve" font-family="Helvetica-Light" font-size="33.0" fill="#000000" transform="matrix(1.00, 0.00, -0.00, -1.00, 511.2, 131.0)">n</text><text xml:space="preserve" font-family="Helvetica-Light" font-size="33.0" fill="#000000" transform="matrix(1.00, 0.00, -0.00, -1.00, 529.6, 131.0)"> </text><text xml:space="preserve" font-family="Helvetica-Light" font-size="30.0" fill="#000000" transform="matrix(1.00, 0.00, -0.00, -1.00, 286.0, 516.0)">B</text><text xml:space="preserve" font-family="Helvetica-Light" font-size="30.0" fill="#000000" transform="matrix(1.00, 0.00, -0.00, -1.00, 306.0, 516.0)">a</text><text xml:space="preserve" font-family="Helvetica-Light" font-size="30.0" fill="#000000" transform="matrix(1.00, 0.00, -0.00, -1.00, 322.7, 516.0)">s</text><text xml:space="preserve" font-family="Helvetica-Light" font-size="30.0" fill="#000000" transform="matrix(1.00, 0.00, -0.00, -1.00, 337.7, 516.0)">e</text><text xml:space="preserve" font-family="Helvetica-Light" font-size="30.0" fill="#000000" transform="matrix(1.00, 0.00, -0.00, -1.00, 354.4, 516.0)">d</text><text xml:space="preserve" font-family="Helvetica-Light" font-size="30.0" fill="#000000" transform="matrix(1.00, 0.00, -0.00, -1.00, 372.7, 516.0)"> </text><text xml:space="preserve" font-family="Helvetica-Light" font-size="30.0" fill="#000000" transform="matrix(1.00, 0.00, -0.00, -1.00, 381.0, 516.0)">o</text><text xml:space="preserve" font-family="Helvetica-Light" font-size="30.0" fill="#000000" transform="matrix(1.00, 0.00, -0.00, -1.00, 397.7, 516.0)">n</text><text xml:space="preserve" font-family="Helvetica-Light" font-size="30.0" fill="#000000" transform="matrix(1.00, 0.00, -0.00, -1.00, 414.4, 516.0)"> </text><text xml:space="preserve" font-family="Helvetica-Light" font-size="30.0" fill="#000000" transform="matrix(1.00, 0.00, -0.00, -1.00, 422.7, 516.0)">y</text><text xml:space="preserve" font-family="Helvetica-Light" font-size="30.0" fill="#000000" transform="matrix(1.00, 0.00, -0.00, -1.00, 437.7, 516.0)">e</text><text xml:space="preserve" font-family="Helvetica-Light" font-size="30.0" fill="#000000" transform="matrix(1.00, 0.00, -0.00, -1.00, 454.4, 516.0)">l</text><text xml:space="preserve" font-family="Helvetica-Light" font-size="30.0" fill="#000000" transform="matrix(1.00, 0.00, -0.00, -1.00, 461.1, 516.0)">p</text><text xml:space="preserve" font-family="Helvetica-Light" font-size="30.0" fill="#000000" transform="matrix(1.00, 0.00, -0.00, -1.00, 479.4, 516.0)"> </text><text xml:space="preserve" font-family="Helvetica-Light" font-size="30.0" fill="#000000" transform="matrix(1.00, 0.00, -0.00, -1.00, 487.8, 516.0)">a</text><text xml:space="preserve" font-family="Helvetica-Light" font-size="30.0" fill="#000000" transform="matrix(1.00, 0.00, -0.00, -1.00, 504.4, 516.0)">c</text><text xml:space="preserve" font-family="Helvetica-Light" font-size="30.0" fill="#000000" transform="matrix(1.00, 0.00, -0.00, -1.00, 521.1, 516.0)">a</text><text xml:space="preserve" font-family="Helvetica-Light" font-size="30.0" fill="#000000" transform="matrix(1.00, 0.00, -0.00, -1.00, 537.8, 516.0)">d</text><text xml:space="preserve" font-family="Helvetica-Light" font-size="30.0" fill="#000000" transform="matrix(1.00, 0.00, -0.00, -1.00, 556.1, 516.0)">e</text><text xml:space="preserve" font-family="Helvetica-Light" font-size="30.0" fill="#000000" transform="matrix(1.00, 0.00, -0.00, -1.00, 572.8, 516.0)">m</text><text xml:space="preserve" font-family="Helvetica-Light" font-size="30.0" fill="#000000" transform="matrix(1.00, 0.00, -0.00, -1.00, 597.8, 516.0)">i</text><text xml:space="preserve" font-family="Helvetica-Light" font-size="30.0" fill="#000000" transform="matrix(1.00, 0.00, -0.00, -1.00, 604.5, 516.0)">c</text><text xml:space="preserve" font-family="Helvetica-Light" font-size="30.0" fill="#000000" transform="matrix(1.00, 0.00, -0.00, -1.00, 621.1, 516.0)"> </text><text xml:space="preserve" font-family="Helvetica-Light" font-size="30.0" fill="#000000" transform="matrix(1.00, 0.00, -0.00, -1.00, 629.5, 516.0)">d</text><text xml:space="preserve" font-family="Helvetica-Light" font-size="30.0" fill="#000000" transform="matrix(1.00, 0.00, -0.00, -1.00, 647.8, 516.0)">a</text><text xml:space="preserve" font-family="Helvetica-Light" font-size="30.0" fill="#000000" transform="matrix(1.00, 0.00, -0.00, -1.00, 664.5, 516.0)">t</text><text xml:space="preserve" font-family="Helvetica-Light" font-size="30.0" fill="#000000" transform="matrix(1.00, 0.00, -0.00, -1.00, 672.8, 516.0)">a</text><text xml:space="preserve" font-family="Helvetica-Light" font-size="30.0" fill="#000000" transform="matrix(1.00, 0.00, -0.00, -1.00, 689.5, 516.0)">s</text><text xml:space="preserve" font-family="Helvetica-Light" font-size="30.0" fill="#000000" transform="matrix(1.00, 0.00, -0.00, -1.00, 704.5, 516.0)">e</text><text xml:space="preserve" font-family="Helvetica-Light" font-size="30.0" fill="#000000" transform="matrix(1.00, 0.00, -0.00, -1.00, 721.2, 516.0)">t</text><text xml:space="preserve" font-family="Helvetica-Light" font-size="30.0" fill="#000000" transform="matrix(1.00, 0.00, -0.00, -1.00, 729.5, 516.0)">:</text><text xml:space="preserve" font-family="Helvetica-Light" font-size="30.0" fill="#000000" transform="matrix(1.00, 0.00, -0.00, -1.00, 737.9, 516.0)"> </text><text xml:space="preserve" font-family="Helvetica-Light" font-size="30.0" fill="#000000" transform="matrix(1.00, 0.00, -0.00, -1.00, 746.2, 516.0)"> </text><text xml:space="preserve" font-family="Helvetica-Light" font-size="30.0" fill="#000000" transform="matrix(1.00, 0.00, -0.00, -1.00, 237.0, 480.0)"> </text><text xml:space="preserve" font-family="Helvetica-Light" font-size="30.0" fill="#000000" transform="matrix(1.00, 0.00, -0.00, -1.00, 245.3, 480.0)">h</text><text xml:space="preserve" font-family="Helvetica-Light" font-size="30.0" fill="#000000" transform="matrix(1.00, 0.00, -0.00, -1.00, 262.0, 480.0)">t</text><text xml:space="preserve" font-family="Helvetica-Light" font-size="30.0" fill="#000000" transform="matrix(1.00, 0.00, -0.00, -1.00, 270.4, 480.0)">t</text><text xml:space="preserve" font-family="Helvetica-Light" font-size="30.0" fill="#000000" transform="matrix(1.00, 0.00, -0.00, -1.00, 278.7, 480.0)">p</text><text xml:space="preserve" font-family="Helvetica-Light" font-size="30.0" fill="#000000" transform="matrix(1.00, 0.00, -0.00, -1.00, 297.0, 480.0)">s</text><text xml:space="preserve" font-family="Helvetica-Light" font-size="30.0" fill="#000000" transform="matrix(1.00, 0.00, -0.00, -1.00, 312.0, 480.0)">:</text><text xml:space="preserve" font-family="Helvetica-Light" font-size="30.0" fill="#000000" transform="matrix(1.00, 0.00, -0.00, -1.00, 320.4, 480.0)">/</text><text xml:space="preserve" font-family="Helvetica-Light" font-size="30.0" fill="#000000" transform="matrix(1.00, 0.00, -0.00, -1.00, 328.7, 480.0)">/</text><text xml:space="preserve" font-family="Helvetica-Light" font-size="30.0" fill="#000000" transform="matrix(1.00, 0.00, -0.00, -1.00, 337.1, 480.0)">w</text><text xml:space="preserve" font-family="Helvetica-Light" font-size="30.0" fill="#000000" transform="matrix(1.00, 0.00, -0.00, -1.00, 358.7, 480.0)">w</text><text xml:space="preserve" font-family="Helvetica-Light" font-size="30.0" fill="#000000" transform="matrix(1.00, 0.00, -0.00, -1.00, 380.4, 480.0)">w</text><text xml:space="preserve" font-family="Helvetica-Light" font-size="30.0" fill="#000000" transform="matrix(1.00, 0.00, -0.00, -1.00, 400.4, 480.0)">.</text><text xml:space="preserve" font-family="Helvetica-Light" font-size="30.0" fill="#000000" transform="matrix(1.00, 0.00, -0.00, -1.00, 408.7, 480.0)">y</text><text xml:space="preserve" font-family="Helvetica-Light" font-size="30.0" fill="#000000" transform="matrix(1.00, 0.00, -0.00, -1.00, 423.7, 480.0)">e</text><text xml:space="preserve" font-family="Helvetica-Light" font-size="30.0" fill="#000000" transform="matrix(1.00, 0.00, -0.00, -1.00, 440.4, 480.0)">l</text><text xml:space="preserve" font-family="Helvetica-Light" font-size="30.0" fill="#000000" transform="matrix(1.00, 0.00, -0.00, -1.00, 447.1, 480.0)">p</text><text xml:space="preserve" font-family="Helvetica-Light" font-size="30.0" fill="#000000" transform="matrix(1.00, 0.00, -0.00, -1.00, 465.4, 480.0)">.</text><text xml:space="preserve" font-family="Helvetica-Light" font-size="30.0" fill="#000000" transform="matrix(1.00, 0.00, -0.00, -1.00, 473.7, 480.0)">c</text><text xml:space="preserve" font-family="Helvetica-Light" font-size="30.0" fill="#000000" transform="matrix(1.00, 0.00, -0.00, -1.00, 490.4, 480.0)">o</text><text xml:space="preserve" font-family="Helvetica-Light" font-size="30.0" fill="#000000" transform="matrix(1.00, 0.00, -0.00, -1.00, 507.1, 480.0)">m</text><text xml:space="preserve" font-family="Helvetica-Light" font-size="30.0" fill="#000000" transform="matrix(1.00, 0.00, -0.00, -1.00, 532.1, 480.0)">/</text><text xml:space="preserve" font-family="Helvetica-Light" font-size="30.0" fill="#000000" transform="matrix(1.00, 0.00, -0.00, -1.00, 540.4, 480.0)">d</text><text xml:space="preserve" font-family="Helvetica-Light" font-size="30.0" fill="#000000" transform="matrix(1.00, 0.00, -0.00, -1.00, 558.8, 480.0)">a</text><text xml:space="preserve" font-family="Helvetica-Light" font-size="30.0" fill="#000000" transform="matrix(1.00, 0.00, -0.00, -1.00, 575.4, 480.0)">t</text><text xml:space="preserve" font-family="Helvetica-Light" font-size="30.0" fill="#000000" transform="matrix(1.00, 0.00, -0.00, -1.00, 583.8, 480.0)">a</text><text xml:space="preserve" font-family="Helvetica-Light" font-size="30.0" fill="#000000" transform="matrix(1.00, 0.00, -0.00, -1.00, 600.4, 480.0)">s</text><text xml:space="preserve" font-family="Helvetica-Light" font-size="30.0" fill="#000000" transform="matrix(1.00, 0.00, -0.00, -1.00, 615.4, 480.0)">e</text><text xml:space="preserve" font-family="Helvetica-Light" font-size="30.0" fill="#000000" transform="matrix(1.00, 0.00, -0.00, -1.00, 632.1, 480.0)">t</text><text xml:space="preserve" font-family="Helvetica-Light" font-size="30.0" fill="#000000" transform="matrix(1.00, 0.00, -0.00, -1.00, 640.5, 480.0)">_</text><text xml:space="preserve" font-family="Helvetica-Light" font-size="30.0" fill="#000000" transform="matrix(1.00, 0.00, -0.00, -1.00, 655.5, 480.0)">c</text><text xml:space="preserve" font-family="Helvetica-Light" font-size="30.0" fill="#000000" transform="matrix(1.00, 0.00, -0.00, -1.00, 672.1, 480.0)">h</text><text xml:space="preserve" font-family="Helvetica-Light" font-size="30.0" fill="#000000" transform="matrix(1.00, 0.00, -0.00, -1.00, 688.8, 480.0)">a</text><text xml:space="preserve" font-family="Helvetica-Light" font-size="30.0" fill="#000000" transform="matrix(1.00, 0.00, -0.00, -1.00, 705.5, 480.0)">l</text><text xml:space="preserve" font-family="Helvetica-Light" font-size="30.0" fill="#000000" transform="matrix(1.00, 0.00, -0.00, -1.00, 712.2, 480.0)">l</text><text xml:space="preserve" font-family="Helvetica-Light" font-size="30.0" fill="#000000" transform="matrix(1.00, 0.00, -0.00, -1.00, 718.8, 480.0)">e</text><text xml:space="preserve" font-family="Helvetica-Light" font-size="30.0" fill="#000000" transform="matrix(1.00, 0.00, -0.00, -1.00, 735.5, 480.0)">n</text><text xml:space="preserve" font-family="Helvetica-Light" font-size="30.0" fill="#000000" transform="matrix(1.00, 0.00, -0.00, -1.00, 752.2, 480.0)">g</text><text xml:space="preserve" font-family="Helvetica-Light" font-size="30.0" fill="#000000" transform="matrix(1.00, 0.00, -0.00, -1.00, 770.5, 480.0)">e</text><g><clipPath id="clip-0"><path d="M 244.2 475.9 L 787.1 475.9 L 787.1 479.4 L 244.2 479.4 Z M 244.2 475.9 "></path></clipPath><g clip-path="url(#clip-0)"><path d="M 12.8 71.4 L 554.7 71.4 " fill="none" stroke="#000000" stroke-width="1.50" stroke-miterlimit="0.00" transform="matrix(1.00, 0.00, 0.00, -1.00, 232.4, 549.0)"></path></g></g><image xlink:href="FAA9346A8E7743647BAB0F6B05E0C1B2.jpeg" width="171.00" height="227.00" transform="matrix(1.01, 0.00, -0.00, -1.00, 117.0, 431.0)"></image><text xml:space="preserve" font-family="Helvetica-Light" font-size="33.0" fill="#000000" transform="matrix(1.00, 0.00, -0.00, -1.00, 123.0, 133.0)">X</text><text xml:space="preserve" font-family="Helvetica-Light" font-size="33.0" fill="#000000" transform="matrix(1.00, 0.00, -0.00, -1.00, 143.2, 133.0)">u</text><text xml:space="preserve" font-family="Helvetica-Light" font-size="33.0" fill="#000000" transform="matrix(1.00, 0.00, -0.00, -1.00, 161.5, 133.0)">a</text><text xml:space="preserve" font-family="Helvetica-Light" font-size="33.0" fill="#000000" transform="matrix(1.00, 0.00, -0.00, -1.00, 179.9, 133.0)">n</text><text xml:space="preserve" font-family="Helvetica-Light" font-size="33.0" fill="#000000" transform="matrix(1.00, 0.00, -0.00, -1.00, 198.2, 133.0)">y</text><text xml:space="preserve" font-family="Helvetica-Light" font-size="33.0" fill="#000000" transform="matrix(1.00, 0.00, -0.00, -1.00, 214.7, 133.0)">u</text><text xml:space="preserve" font-family="Helvetica-Light" font-size="33.0" fill="#000000" transform="matrix(1.00, 0.00, -0.00, -1.00, 233.1, 133.0)"> </text><text xml:space="preserve" font-family="Helvetica-Light" font-size="33.0" fill="#000000" transform="matrix(1.00, 0.00, -0.00, -1.00, 242.2, 133.0)">L</text><text xml:space="preserve" font-family="Helvetica-Light" font-size="33.0" fill="#000000" transform="matrix(1.00, 0.00, -0.00, -1.00, 260.6, 133.0)">i</text><text xml:space="preserve" font-family="Helvetica-Light" font-size="33.0" fill="#000000" transform="matrix(1.00, 0.00, -0.00, -1.00, 267.9, 133.0)">u</text><text xml:space="preserve" font-family="Helvetica-Light" font-size="33.0" fill="#000000" transform="matrix(1.00, 0.00, -0.00, -1.00, 286.3, 133.0)"> </text></g></svg>