<?xml version="1.0" encoding="UTF-8" standalone="no"?><svg xmlns="http://www.w3.org/2000/svg" xmlns:xlink="http://www.w3.org/1999/xlink" clip-rule="evenodd" stroke-miterlimit="4.00" viewBox="0 0 254 31"><desc>SVG generated by Keynote</desc><defs></defs><g transform="matrix(1.00, 0.00, -0.00, -1.00, 0.0, 31.0)"><text xml:space="preserve" font-family="Helvetica-Bold" font-weight="bold" font-size="36.0" fill="#C82505" transform="matrix(1.00, 0.00, -0.00, -1.00, -1.0, 2.0)">U</text><text xml:space="preserve" font-family="Helvetica-Bold" font-weight="bold" font-size="36.0" fill="#C82505" transform="matrix(1.00, 0.00, -0.00, -1.00, 25.0, 2.0)">n</text><text xml:space="preserve" font-family="Helvetica-Bold" font-weight="bold" font-size="36.0" fill="#C82505" transform="matrix(1.00, 0.00, -0.00, -1.00, 47.0, 2.0)">-</text><text xml:space="preserve" font-family="Helvetica-Bold" font-weight="bold" font-size="36.0" fill="#C82505" transform="matrix(1.00, 0.00, -0.00, -1.00, 59.0, 2.0)">N</text><text xml:space="preserve" font-family="Helvetica-Bold" font-weight="bold" font-size="36.0" fill="#C82505" transform="matrix(1.00, 0.00, -0.00, -1.00, 85.0, 2.0)">o</text><text xml:space="preserve" font-family="Helvetica-Bold" font-weight="bold" font-size="36.0" fill="#C82505" transform="matrix(1.00, 0.00, -0.00, -1.00, 107.0, 2.0)">r</text><text xml:space="preserve" font-family="Helvetica-Bold" font-weight="bold" font-size="36.0" fill="#C82505" transform="matrix(1.00, 0.00, -0.00, -1.00, 121.0, 2.0)">m</text><text xml:space="preserve" font-family="Helvetica-Bold" font-weight="bold" font-size="36.0" fill="#C82505" transform="matrix(1.00, 0.00, -0.00, -1.00, 153.0, 2.0)">a</text><text xml:space="preserve" font-family="Helvetica-Bold" font-weight="bold" font-size="36.0" fill="#C82505" transform="matrix(1.00, 0.00, -0.00, -1.00, 173.0, 2.0)">l</text><text xml:space="preserve" font-family="Helvetica-Bold" font-weight="bold" font-size="36.0" fill="#C82505" transform="matrix(1.00, 0.00, -0.00, -1.00, 183.0, 2.0)">i</text><text xml:space="preserve" font-family="Helvetica-Bold" font-weight="bold" font-size="36.0" fill="#C82505" transform="matrix(1.00, 0.00, -0.00, -1.00, 193.0, 2.0)">z</text><text xml:space="preserve" font-family="Helvetica-Bold" font-weight="bold" font-size="36.0" fill="#C82505" transform="matrix(1.00, 0.00, -0.00, -1.00, 211.0, 2.0)">e</text><text xml:space="preserve" font-family="Helvetica-Bold" font-weight="bold" font-size="36.0" fill="#C82505" transform="matrix(1.00, 0.00, -0.00, -1.00, 231.0, 2.0)">d</text></g></svg>